<?xml version="1.0" standalone="no"?>
<!DOCTYPE svg PUBLIC "-//W3C//DTD SVG 20010904//EN"
 "http://www.w3.org/TR/2001/REC-SVG-20010904/DTD/svg10.dtd">
<svg version="1.0" xmlns="http://www.w3.org/2000/svg"
 width="1024.000000pt" height="1024.000000pt" viewBox="0 0 1024.000000 1024.000000"
 preserveAspectRatio="xMidYMid meet">

<g transform="translate(0.000000,1024.000000) scale(0.100000,-0.100000)"
fill="#000000" stroke="none">
<path d="M5165 9009 c-474 -49 -930 -288 -1186 -622 -114 -147 -186 -344 -177
-478 4 -45 1 -69 -6 -72 -22 -9 -262 -181 -336 -241 -193 -156 -400 -367 -529
-537 -254 -337 -451 -780 -531 -1194 -6 -33 -14 -68 -16 -77 -4 -14 -211 -138
-229 -138 -3 0 -5 6 -5 13 0 22 -75 107 -135 152 -64 48 -132 78 -204 90 l-44
7 6 -74 c6 -92 33 -156 104 -255 29 -41 53 -78 53 -82 0 -4 -48 -36 -108 -71
-101 -60 -210 -128 -417 -260 -49 -31 -137 -87 -195 -123 -99 -62 -185 -122
-119 -84 14 8 93 52 176 96 l150 81 130 0 131 0 128 78 c71 43 181 110 244
149 179 109 593 350 765 445 416 231 626 349 788 443 64 37 119 66 121 64 8
-9 15 -139 7 -139 -5 0 -37 -19 -72 -43 -35 -23 -134 -84 -219 -135 -85 -51
-207 -127 -270 -167 -63 -41 -155 -100 -205 -131 -49 -31 -115 -73 -145 -95
-30 -21 -86 -57 -125 -80 -104 -62 -199 -126 -300 -200 -49 -36 -101 -72 -115
-79 -14 -7 -35 -22 -47 -33 -19 -17 -21 -23 -10 -36 6 -8 7 -12 1 -8 -6 3 -11
0 -11 -7 0 -8 5 -13 11 -12 21 3 36 17 35 34 0 14 -2 14 -8 -2 -5 -13 -10 -16
-14 -9 -4 7 3 19 15 27 17 12 25 13 37 3 12 -9 13 -9 7 1 -4 7 -2 12 4 12 6 0
8 5 4 13 -6 9 -5 9 8 -1 12 -10 17 -10 27 1 6 8 8 16 5 20 -3 3 4 10 15 17 12
6 21 8 21 5 0 -3 16 10 35 30 20 19 40 35 46 35 6 0 23 9 37 21 71 54 163 118
157 109 -3 -5 22 11 57 36 103 75 612 405 761 493 48 29 100 63 115 75 15 12
45 32 67 44 95 53 -44 -43 -436 -301 -302 -198 -704 -470 -815 -553 -40 -29
-118 -93 -173 -143 -56 -50 -106 -91 -111 -91 -18 0 -19 18 -1 34 12 11 17 25
14 37 -4 15 -8 17 -13 8 -5 -7 -6 -18 -3 -26 3 -7 0 -13 -7 -13 -6 0 -8 4 -5
10 3 5 2 10 -4 10 -5 0 -13 -4 -16 -10 -3 -5 -1 -10 4 -10 6 0 11 -4 11 -10 0
-5 -6 -7 -14 -4 -8 3 -17 1 -21 -5 -3 -7 0 -8 9 -5 9 3 16 1 16 -5 0 -6 -14
-11 -30 -11 -31 0 -31 0 -13 23 9 12 74 75 143 140 125 118 295 241 429 312
36 19 105 64 153 99 47 36 144 101 214 145 71 45 122 81 114 81 -9 0 -48 -21
-87 -47 -40 -27 -137 -88 -216 -138 -80 -49 -142 -94 -139 -99 3 -5 0 -6 -5
-3 -26 16 -513 -305 -703 -464 -69 -57 -82 -61 -168 -48 -39 6 -61 4 -89 -8
-29 -12 -62 -14 -150 -10 l-112 5 -63 -37 c-71 -42 -161 -100 -427 -275 l-185
-121 285 -5 284 -5 54 -30 c63 -35 128 -106 172 -188 17 -32 29 -60 27 -62 -1
-1 -34 5 -73 15 -38 11 -106 19 -149 19 -86 1 -206 -16 -206 -29 0 -4 39 -45
87 -91 90 -85 233 -185 310 -216 l43 -18 1 -85 c3 -258 0 -363 -11 -410 l-13
-52 -30 55 c-45 85 -139 177 -220 217 -123 60 -288 54 -413 -16 -34 -18 -67
-40 -74 -49 -11 -13 -8 -15 16 -15 59 0 147 -29 197 -63 29 -20 83 -70 120
-112 l69 -76 -26 -62 c-40 -96 -45 -138 -46 -347 0 -108 -4 -200 -9 -205 -25
-28 -51 -130 -51 -203 1 -134 54 -243 180 -371 197 -200 505 -328 713 -297
l47 7 0 43 0 43 -85 21 c-137 34 -280 112 -395 215 l-52 47 482 0 482 0 -5
-23 c-3 -12 -11 -67 -18 -122 -24 -195 28 -383 144 -523 143 -173 380 -237
563 -151 93 44 187 152 220 253 9 28 20 55 24 59 4 5 24 -3 44 -17 20 -14 54
-31 74 -38 48 -17 203 -17 462 0 190 13 363 11 544 -4 l68 -6 -63 -25 c-99
-39 -197 -110 -251 -182 -65 -85 -64 -92 15 -75 72 15 133 36 272 94 113 47
230 80 286 80 34 0 38 -3 49 -36 16 -48 8 -160 -15 -203 -9 -19 -37 -56 -62
-82 -51 -54 -123 -85 -179 -76 -40 7 -43 -1 -11 -31 113 -106 324 -36 417 141
14 26 28 47 31 47 3 0 14 -19 25 -42 26 -59 113 -144 176 -173 97 -45 213 -30
276 37 l22 25 -53 -5 c-139 -11 -277 128 -277 278 0 93 4 100 64 100 92 0 178
-20 323 -75 128 -48 277 -95 303 -95 17 0 -26 73 -75 128 -52 57 -168 134
-233 153 -23 7 -40 14 -38 16 2 2 77 8 167 13 156 10 216 8 679 -17 128 -6
197 7 276 53 l42 25 12 -38 c68 -208 256 -339 457 -319 81 8 134 28 211 78
124 81 234 241 263 383 14 72 17 212 6 318 l-9 77 473 0 473 0 -34 -35 c-46
-47 -158 -124 -247 -168 -64 -32 -130 -54 -215 -72 -26 -5 -28 -9 -28 -50 l0
-44 46 -7 c120 -18 271 18 436 103 285 148 468 385 443 578 -16 133 -114 242
-243 270 l-34 7 4 161 c4 215 9 225 167 352 64 51 140 119 169 150 62 67 137
105 223 112 32 3 59 9 59 14 0 13 -99 68 -162 90 -94 31 -222 25 -300 -15 -71
-37 -138 -100 -189 -179 -30 -47 -40 -56 -45 -42 -16 40 5 339 32 465 21 99
25 141 20 202 l-5 76 27 7 c68 16 171 76 214 124 52 57 68 104 68 194 0 182
-125 384 -288 464 l-57 28 -265 3 c-744 7 -1130 6 -1130 -2 0 -5 15 -27 33
-50 48 -60 85 -121 93 -150 l6 -26 599 0 598 0 13 -47 14 -48 -568 -3 -568 -2
-35 -70 c-19 -38 -40 -98 -47 -134 l-13 -66 -2019 2 -2020 3 -12 48 c-7 27
-31 87 -53 133 l-40 84 -543 3 c-299 1 -671 2 -828 2 l-285 0 -48 29 c-26 16
-78 38 -115 50 l-67 21 972 -3 972 -2 25 49 c14 27 48 79 76 116 27 36 50 67
50 68 0 1 -179 1 -397 -1 -247 -2 -394 0 -388 6 26 24 811 590 1117 805 l138
96 37 -16 c47 -20 145 -22 196 -4 78 27 146 114 147 187 0 31 0 31 38 21 l37
-10 0 -106 c0 -119 13 -158 77 -242 l36 -47 -101 -6 c-374 -24 -499 -56 -580
-145 -45 -50 -67 -122 -67 -218 0 -54 -3 -73 -13 -73 -28 0 -104 -61 -127
-102 -21 -37 -25 -60 -30 -161 l-5 -119 -38 -13 c-22 -7 -50 -24 -64 -37 -45
-42 -53 -78 -53 -244 l0 -154 1945 0 1945 0 0 150 c0 104 -4 161 -14 183 -18
44 -78 95 -121 103 l-35 6 0 117 c0 139 -16 183 -81 230 -23 17 -48 31 -54 31
-18 0 -25 34 -25 125 -1 99 -20 146 -83 201 -79 69 -209 95 -592 115 l-220 12
132 67 c206 105 353 220 415 325 16 28 47 74 69 104 125 173 114 432 -25 576
l-41 44 0 83 c0 68 -4 91 -24 128 -35 66 -67 104 -111 135 -29 20 -43 39 -51
69 -6 22 -49 156 -96 296 l-85 255 17 48 c40 112 0 258 -91 334 l-41 35 26 61
c33 82 34 195 2 279 -115 299 -559 479 -1056 427z m200 -199 l-50 -7 44 -1
c33 -2 65 -14 123 -48 95 -56 110 -74 31 -38 -88 40 -173 64 -223 63 l-45 -1
38 -9 c38 -9 97 -36 97 -44 0 -2 -19 -2 -42 1 -32 4 -39 2 -28 -5 8 -6 24 -11
35 -12 44 -2 -31 -17 -100 -19 -55 -2 -63 -4 -40 -10 29 -7 29 -8 4 -9 -36 -1
-175 -45 -299 -93 -147 -58 -304 -137 -420 -214 -99 -65 -121 -84 -101 -84 6
0 14 0 19 0 4 0 7 5 7 11 0 17 199 134 314 184 213 94 463 166 566 163 24 0
30 -2 15 -5 -14 -2 -74 -15 -134 -29 -277 -66 -602 -217 -793 -369 -48 -38
-95 -69 -103 -67 -11 2 -12 1 -2 -6 9 -6 4 -16 -19 -38 l-32 -29 18 28 c13 21
15 33 8 50 -10 22 -10 21 -25 -8 -8 -17 -13 -36 -10 -44 2 -8 0 -11 -6 -7 -5
3 -13 -6 -16 -19 -4 -14 -10 -24 -14 -21 -4 2 -8 -8 -9 -22 l-1 -27 25 30 25
30 -18 -32 c-23 -41 -53 -41 -55 2 -5 106 11 154 77 236 21 26 10 17 -26 -20
-116 -122 -182 -303 -158 -434 9 -52 -7 -37 -27 24 -48 143 21 320 195 503
169 177 419 321 707 406 121 36 212 48 358 48 95 -1 124 -3 90 -8z m330 -32
c213 -61 356 -197 354 -337 0 -61 -13 -107 -22 -81 -29 87 -48 122 -98 181
-32 37 -64 71 -71 75 -7 5 8 -16 33 -46 25 -30 55 -79 67 -108 29 -72 9 -56
-32 26 -42 83 -113 171 -169 208 -23 16 -78 48 -122 72 -87 47 -75 49 60 10z
m-360 -373 c-50 -8 -115 -21 -145 -29 -30 -9 -39 -13 -20 -10 111 17 208 25
237 21 23 -4 31 -2 27 5 -4 7 -2 8 5 4 6 -4 99 -9 206 -11 167 -3 195 -1 195
12 0 18 32 10 71 -18 38 -27 71 -97 58 -121 -16 -29 -35 -32 -67 -8 -16 12
-45 26 -63 31 -33 8 -33 8 9 6 48 -3 51 2 20 38 -32 37 -81 45 -267 46 -304 0
-468 -30 -741 -138 -246 -97 -406 -193 -552 -331 -82 -78 -89 -83 -69 -47 49
89 184 225 295 299 180 119 423 212 641 245 72 10 157 19 190 19 58 0 58 -1
-30 -13z m-40 -90 c-5 -2 -53 -13 -105 -25 -193 -45 -482 -177 -711 -325 -87
-56 -99 -62 -74 -34 127 141 283 234 508 303 123 38 255 73 302 79 38 5 93 6
80 2z m720 -184 c107 -44 164 -138 121 -197 -14 -18 -15 -18 -25 8 -5 15 -20
32 -32 38 -17 10 -19 14 -8 21 11 8 10 13 -9 29 -40 33 -90 42 -282 49 l-185
8 148 1 c136 2 173 9 130 27 -34 13 -277 17 -338 6 -33 -7 -82 -13 -108 -15
-27 -2 -52 -7 -55 -11 -4 -4 11 -5 33 -2 40 6 40 6 8 -5 -49 -16 -40 -26 20
-22 32 2 13 -3 -53 -15 -247 -45 -521 -151 -744 -289 -92 -57 -223 -157 -285
-218 -19 -18 -37 -31 -42 -29 -4 3 -11 0 -15 -6 -4 -8 -3 -9 4 -5 20 12 13 -5
-15 -43 -16 -19 -33 -54 -39 -76 l-11 -40 -8 47 c-12 76 33 160 143 268 240
235 656 426 1047 480 94 13 564 6 600 -9z m-467 -58 c-10 -2 -26 -2 -35 0 -10
3 -2 5 17 5 19 0 27 -2 18 -5z m32 -188 c-86 -16 -139 -32 -170 -51 l-25 -15
25 5 c62 14 218 26 245 18 26 -7 19 -10 -50 -20 -62 -9 -260 -69 -235 -72 3 0
43 7 90 15 47 8 123 14 170 14 l85 -1 -70 -14 c-132 -25 -216 -47 -222 -57 -4
-6 0 -8 11 -4 31 12 230 18 261 8 28 -8 25 -9 -25 -11 -30 -1 -95 -9 -145 -19
l-90 -19 121 -1 c182 -2 214 -12 85 -28 -57 -6 -107 -16 -110 -20 -3 -5 -32
-17 -64 -28 -73 -24 -59 -31 21 -11 64 17 247 22 256 7 3 -5 -31 -12 -77 -16
-45 -4 -107 -15 -137 -25 l-55 -18 130 -2 c167 -3 211 -14 95 -24 -80 -7 -223
-35 -234 -47 -3 -3 20 -2 52 2 89 11 244 11 237 -1 -3 -5 -24 -10 -46 -10 -44
0 -175 -27 -199 -41 -9 -5 20 -6 70 -3 47 4 87 6 90 6 102 -1 130 -4 130 -12
0 -6 -26 -10 -59 -10 -58 0 -171 -19 -220 -38 -16 -6 32 -7 132 -4 113 3 157
2 157 -7 0 -6 -15 -11 -32 -11 -50 0 -227 -28 -246 -39 -11 -7 24 -8 103 -4
66 3 136 1 155 -4 32 -9 28 -10 -50 -17 -47 -4 -129 -18 -183 -32 -54 -13
-101 -24 -104 -24 -4 0 -4 -2 -1 -5 3 -3 50 6 104 20 55 13 106 25 114 24 14
0 -66 -24 -265 -78 -84 -23 -230 -79 -342 -132 -89 -43 -93 -44 -93 -29 0 6
-45 126 -99 268 -103 267 -131 345 -131 363 0 15 269 142 375 177 187 62 328
89 455 90 l75 0 -65 -13z m481 -74 l55 -12 92 -273 c51 -150 92 -277 92 -282
0 -5 -20 -8 -44 -6 -37 3 -45 8 -48 25 -2 16 -16 26 -58 39 l-55 17 48 0 c50
1 54 6 36 45 -9 18 -26 28 -68 39 l-56 15 57 1 58 1 -12 25 c-8 17 -24 28 -52
36 -63 16 -64 17 -18 18 29 1 42 5 42 15 0 24 -33 55 -70 65 l-35 9 32 1 c40
1 48 14 33 52 -9 22 -24 33 -59 44 l-46 15 43 -3 c29 -2 42 1 42 11 0 18 -39
92 -48 92 -5 0 -17 7 -28 16 -12 10 -14 14 -4 11 9 -3 40 -10 71 -16z m-2097
-200 c9 -10 35 -26 57 -36 36 -17 39 -21 32 -44 -4 -14 -8 -69 -8 -121 0 -88
2 -99 31 -150 17 -30 44 -64 61 -75 26 -17 36 -38 70 -148 l40 -127 -31 -23
c-42 -30 -75 -67 -82 -95 -5 -17 -11 -21 -27 -16 -33 10 -144 6 -185 -7 -90
-29 -147 -86 -187 -185 -25 -61 -20 -57 -195 -153 -47 -26 -251 -140 -455
-253 -203 -114 -377 -210 -386 -213 -14 -5 -12 10 13 101 130 481 455 973 865
1311 89 73 348 253 364 253 3 0 13 -8 23 -19z m846 -268 c51 -153 101 -298
112 -322 21 -49 16 -61 -36 -88 -17 -9 -33 -19 -36 -24 -9 -13 -147 308 -220
513 l-39 108 57 44 c31 25 60 45 63 46 4 0 48 -125 99 -277z m-175 -48 c25
-88 67 -218 92 -289 34 -100 42 -134 35 -150 -9 -18 -15 -10 -53 69 -23 50
-82 184 -130 300 l-88 210 37 38 37 38 12 -28 c6 -16 32 -100 58 -188z m-146
93 c123 -395 181 -589 181 -604 -1 -33 -65 105 -148 321 -100 261 -98 254 -72
288 12 15 23 27 25 27 2 0 8 -15 14 -32z m0 -391 c89 -281 101 -327 82 -327
-20 0 -211 530 -211 585 0 9 5 26 11 37 9 17 13 18 19 7 5 -8 49 -143 99 -302z
m1888 88 c24 -9 56 -33 73 -51 25 -29 30 -43 30 -88 0 -29 -3 -56 -7 -59 -3
-4 -21 5 -40 18 -18 14 -48 33 -65 41 l-33 15 43 -7 c23 -3 42 -2 42 3 0 17
-44 52 -95 75 -46 21 -63 23 -220 22 -252 0 -470 -38 -715 -122 -207 -72 -313
-122 -514 -246 -109 -67 -282 -226 -306 -283 -8 -17 -18 -29 -23 -26 -5 3 -6
-4 -2 -16 9 -29 -9 -27 -25 3 -17 32 -7 68 34 131 134 204 554 444 952 544
177 45 300 63 484 70 197 7 330 -1 387 -24z m-4 -289 c132 -36 199 -83 243
-169 31 -59 28 -185 -5 -236 -7 -11 -15 -7 -39 21 -17 19 -54 47 -83 63 -45
24 -67 29 -148 32 -184 8 -434 -17 -619 -63 -70 -17 -294 -92 -302 -101 -3 -3
6 -3 20 2 87 25 354 83 415 88 69 7 73 8 -145 -45 -69 -16 -165 -45 -215 -64
-152 -59 -410 -204 -530 -299 -68 -54 -73 -49 -10 10 62 58 218 173 289 213
23 13 30 20 17 16 -31 -8 -191 -104 -257 -154 -29 -21 -80 -65 -114 -97 -59
-55 -62 -56 -45 -23 31 61 183 202 279 260 380 227 867 321 1350 260 44 -5 81
-8 84 -5 2 2 -9 33 -26 68 -36 78 -126 170 -210 215 -69 38 -62 39 51 8z
m-573 3 c-64 -12 -211 -51 -207 -55 2 -2 46 6 98 18 75 17 127 22 259 22 l165
1 68 -32 c37 -18 67 -35 67 -38 0 -3 -5 -3 -11 1 -7 4 -24 7 -38 8 -18 1 -25
6 -23 16 2 10 -4 7 -18 -7 -17 -19 -32 -23 -75 -23 -30 0 -55 4 -55 8 0 10
-46 10 -56 0 -4 -5 1 -8 12 -9 10 -1 -21 -7 -71 -15 -256 -39 -613 -163 -804
-279 -40 -25 -78 -42 -84 -38 -5 3 -7 2 -4 -4 4 -6 -29 -33 -72 -61 -81 -53
-236 -196 -227 -210 2 -4 1 -14 -4 -22 -6 -10 -10 -6 -15 16 -4 16 -8 34 -9
39 -6 22 -48 -113 -49 -158 -2 -40 -4 -45 -14 -31 -19 26 -25 95 -13 147 20
92 67 167 164 262 197 196 522 362 831 425 126 26 134 27 185 28 l45 0 -45 -9z
m-1466 -144 c4 -42 9 -83 12 -93 2 -9 -1 -7 -7 6 -13 24 -29 29 -30 10 0 -7
-2 -24 -4 -38 -1 -14 4 -37 12 -52 21 -44 -3 -33 -34 14 -39 58 -38 130 1 187
16 23 32 41 36 41 4 0 10 -34 14 -75z m-131 -50 c-3 -19 0 -55 6 -81 14 -56 8
-67 -13 -25 -18 34 -21 93 -6 122 16 28 19 23 13 -16z m-118 -4 c38 -7 39 -7
17 -19 -62 -35 -81 -119 -48 -217 4 -11 -5 2 -20 29 -33 62 -37 135 -9 166 10
11 13 20 8 20 -20 0 -72 -70 -79 -106 -17 -91 8 -193 72 -291 23 -36 23 -36 2
-13 -13 14 -31 37 -41 50 l-18 25 7 -25 c10 -36 34 -65 79 -94 21 -14 32 -26
24 -26 -9 0 -34 13 -55 29 -136 98 -188 271 -122 409 31 66 79 83 183 63z m63
-89 c-1 -48 2 -93 6 -100 4 -6 3 -20 -3 -29 -15 -28 -65 87 -58 133 6 33 35
83 50 84 4 0 6 -40 5 -88z m1815 -69 c-7 -2 -19 -2 -25 0 -7 3 -2 5 12 5 14 0
19 -2 13 -5z m-2098 -245 l16 -33 -36 38 c-19 20 -38 37 -41 37 -3 0 -2 -15 2
-32 6 -28 5 -31 -9 -20 -15 13 -37 84 -37 123 0 13 12 36 27 51 l27 29 17 -80
c10 -43 25 -94 34 -113z m2597 162 c49 -14 68 -34 68 -74 0 -66 -88 -152 -243
-236 -97 -53 -107 -50 -22 7 84 56 172 144 192 191 12 30 12 37 -2 58 -9 14
-30 34 -48 44 -31 19 -31 20 -7 20 14 0 42 -5 62 -10z m-802 -34 c0 -3 -17
-10 -37 -17 -71 -23 -248 -100 -365 -160 -65 -33 -118 -58 -118 -56 0 10 183
118 248 146 108 47 272 99 272 87z m435 -143 c-248 -29 -385 -60 -527 -117
-149 -60 -318 -150 -415 -221 l-48 -36 55 52 c61 57 26 37 -70 -40 -30 -24
-45 -33 -34 -20 12 13 30 34 40 47 33 41 174 142 257 183 126 64 223 98 352
124 152 30 166 32 305 32 63 0 102 -2 85 -4z m-2629 -246 c-16 -12 -102 -72
-190 -132 -89 -61 -222 -154 -296 -206 -74 -53 -162 -115 -195 -138 -118 -83
-240 -163 -225 -148 23 24 370 268 753 529 159 109 223 148 153 95z m2137
-437 c605 0 1098 -3 1095 -6 -3 -3 -124 -11 -269 -18 -238 -12 -252 -14 -139
-16 162 -4 137 -7 -235 -25 -170 -9 -355 -20 -410 -25 -55 -5 -161 -10 -235
-11 -74 0 -160 -4 -190 -9 -88 -12 164 -12 365 1 198 12 590 12 655 0 30 -6
-29 -9 -180 -10 -254 -1 -590 -15 -755 -32 -60 -6 -175 -14 -255 -18 -90 -5
-10 -6 210 -3 301 4 599 -2 588 -13 -2 -2 -232 -9 -513 -16 -310 -9 -479 -16
-430 -20 44 -3 204 -5 355 -3 263 2 267 2 90 -6 -205 -8 -650 -13 -805 -9
l-100 3 140 7 140 6 -185 -1 c-102 -1 -174 1 -160 4 14 2 -9 7 -50 11 -51 4
-7 6 135 8 l210 4 -135 13 c-236 22 -334 35 -416 54 -98 23 -81 24 83 6 156
-17 394 -28 318 -15 -27 5 -102 16 -165 24 -63 8 -153 22 -200 30 -160 29
-154 25 -123 72 l17 26 225 -6 c123 -4 719 -7 1324 -7z m935 -37 c-15 -2 -42
-2 -60 0 -18 2 -6 4 27 4 33 0 48 -2 33 -4z m-2453 -264 c105 -5 602 -14 1105
-20 503 -6 965 -14 1025 -17 l110 -7 -85 -7 c-47 -5 -330 -11 -630 -15 -300
-4 -525 -10 -500 -13 25 -4 -49 -5 -165 -4 -180 1 -192 0 -85 -6 71 -4 -17 -5
-205 -3 -289 4 -498 15 -722 39 -61 7 -63 8 -63 35 0 17 5 29 13 29 6 -1 98
-5 202 -11z m1085 -149 c322 -6 605 -13 630 -17 44 -7 43 -7 -30 -14 -41 -3
-165 -7 -275 -9 -110 -1 -225 -5 -255 -10 -30 -4 175 -7 455 -6 376 0 527 -3
575 -12 36 -7 83 -16 105 -20 22 -4 -211 -6 -517 -3 -367 2 -558 0 -558 -7 0
-6 74 -12 185 -17 362 -14 287 -23 -230 -26 -559 -3 -549 -4 293 -24 182 -5
332 -11 332 -15 0 -4 -73 -10 -162 -13 -90 -3 -316 -11 -503 -17 -390 -14
-1019 -8 -1145 10 -116 17 -138 33 -35 26 44 -3 181 -8 305 -10 191 -4 208 -3
110 5 -134 11 -490 63 -570 84 l-55 14 65 -5 c36 -2 138 -11 228 -20 89 -8
168 -14 174 -12 10 4 -38 14 -342 69 -63 11 -118 23 -122 25 -22 14 8 20 69
13 37 -4 113 -9 168 -12 l100 -6 -95 18 -95 18 60 5 c67 5 275 3 1135 -12z
m-285 -291 c385 -6 972 -14 1305 -17 l605 -7 -270 -23 c-626 -52 -1054 -74
-1470 -74 -220 -1 -479 4 -575 11 -351 23 -578 43 -690 59 l-115 17 -3 29 -4
29 259 -6 c142 -4 573 -12 958 -18z m4010 -224 c-16 -14 -48 -38 -69 -53 l-40
-27 -558 -3 c-343 -2 -558 1 -558 7 0 5 184 11 463 13 l462 5 150 40 c183 49
188 49 150 18z m-6585 -19 c0 -2 -17 -15 -39 -29 -51 -34 -78 -92 -91 -197 -6
-48 -10 -294 -10 -578 0 -410 -3 -506 -16 -569 -37 -183 -150 -309 -314 -352
-79 -20 -221 -31 -328 -24 -96 6 -106 5 -119 -13 -12 -16 -15 -17 -23 -4 -13
20 -12 289 1 369 14 91 24 105 38 54 14 -52 55 -101 98 -119 43 -18 213 -19
256 -1 42 18 101 84 118 133 11 31 14 153 14 619 l0 580 -27 47 c-15 25 -40
55 -55 67 l-28 20 263 1 c144 0 262 -2 262 -4z m820 -56 c0 -6 -108 -10 -305
-10 -197 0 -305 4 -305 10 0 6 108 10 305 10 197 0 305 -4 305 -10z m5430
-147 c0 -5 -7 -44 -15 -88 -8 -44 -14 -124 -15 -177 l0 -97 -43 43 c-55 54
-67 56 -389 56 l-248 0 2 -177 3 -176 220 2 220 2 68 31 c37 17 69 29 72 27 2
-3 -3 -24 -11 -48 -29 -84 -28 -217 3 -297 3 -8 -23 1 -62 21 l-66 35 -225 0
-224 0 0 -208 c0 -115 2 -211 4 -213 2 -2 132 -2 288 1 l283 5 63 39 c35 21
65 36 68 33 3 -3 1 -22 -5 -44 -15 -53 -14 -134 4 -226 21 -110 20 -115 -9
-88 -13 13 -41 27 -63 32 -21 5 -257 12 -524 16 l-486 6 41 31 c22 17 51 51
64 76 l22 44 0 578 c0 468 -3 585 -14 612 -12 30 -27 44 -94 94 -22 16 3 17
475 17 488 0 499 0 538 21 45 24 55 27 55 17z m-5765 -42 l30 -6 -33 -14 c-18
-7 -52 -36 -77 -63 -36 -40 -45 -58 -50 -101 -3 -29 -5 -248 -3 -487 3 -417 4
-437 24 -474 36 -70 71 -81 269 -81 193 1 230 11 272 74 l23 34 0 494 0 494
-45 48 c-25 27 -60 55 -76 62 -24 9 -28 14 -16 21 12 6 318 6 516 -1 21 -1 19
-5 -22 -32 -26 -17 -57 -45 -69 -62 -23 -32 -23 -33 -28 -552 -5 -509 -6 -521
-28 -576 -38 -95 -100 -161 -185 -199 -149 -66 -453 -76 -622 -20 -116 39
-193 109 -237 218 -22 56 -23 65 -28 577 l-5 520 -24 34 c-13 18 -44 46 -69
62 l-44 28 58 4 c103 6 438 5 469 -2z m2726 -27 c14 -13 45 -61 69 -107 24
-45 56 -101 72 -124 16 -24 27 -43 25 -43 -2 0 -38 16 -79 35 l-75 34 -222 1
-222 1 1 -536 c0 -575 0 -576 51 -625 13 -12 42 -31 64 -41 l40 -19 -280 0
-280 0 39 23 c22 12 53 39 70 60 l31 39 5 531 c3 293 4 542 2 554 -3 21 -8 22
-125 22 -81 0 -139 5 -172 15 -27 9 -51 16 -52 16 -2 0 -3 -46 -3 -102 l0
-102 -29 45 c-59 93 -124 119 -300 119 -64 0 -133 -5 -153 -10 -133 -37 -152
-232 -29 -304 17 -10 84 -38 147 -62 168 -64 240 -102 307 -163 174 -161 184
-441 20 -591 -89 -82 -221 -117 -398 -107 -131 8 -192 23 -290 72 -71 35 -80
43 -77 65 1 14 5 90 9 169 l6 145 24 -50 c57 -113 128 -151 302 -161 139 -7
207 6 250 51 56 58 61 122 15 203 -34 58 -85 90 -259 162 -176 73 -223 99
-286 158 -137 128 -137 398 0 530 58 57 151 103 235 117 53 9 257 11 796 8
l725 -4 26 -24z m792 29 c4 -2 -12 -18 -37 -33 -24 -16 -56 -46 -70 -67 l-26
-38 0 -588 c0 -633 -1 -614 52 -664 13 -13 42 -32 64 -43 l39 -19 -280 0
c-269 0 -279 0 -249 17 47 26 68 44 94 80 l24 32 0 593 1 592 -22 36 c-24 37
-88 88 -114 90 -8 0 -6 4 6 8 22 9 504 13 518 4z m927 -18 c30 -10 71 -26 91
-36 l37 -18 5 -118 c2 -65 8 -129 12 -143 7 -22 2 -20 -36 17 -67 64 -108 76
-294 81 -320 8 -382 -27 -406 -234 -13 -112 -4 -564 12 -626 13 -51 52 -94
102 -112 57 -20 206 -27 352 -17 163 11 218 38 282 139 l24 37 -5 -48 c-3 -27
-1 -94 5 -150 11 -100 11 -101 -12 -120 -41 -34 -141 -76 -217 -92 -95 -20
-325 -20 -427 0 -203 39 -330 163 -367 360 -18 98 -18 656 1 740 39 176 146
289 321 339 84 23 102 25 290 21 130 -2 189 -7 230 -20z m-1630 -899 l0 -432
-85 -62 c-46 -34 -86 -62 -87 -62 -2 0 -2 247 0 549 l2 549 85 -55 85 -56 0
-431z m-1935 -777 c36 -12 65 -26 65 -31 0 -8 -20 -42 -46 -77 -2 -1 -13 4
-26 13 -29 21 -111 21 -128 1 -19 -23 2 -41 81 -66 105 -33 145 -87 119 -162
-31 -95 -157 -123 -282 -64 l-47 22 26 42 25 43 29 -21 c59 -42 154 -33 147
13 -2 14 -16 25 -43 35 -106 35 -127 46 -146 77 -46 76 -2 163 96 187 48 11
61 10 130 -12z m1038 -11 c46 -20 47 -21 32 -42 -9 -11 -18 -29 -22 -38 -7
-22 -7 -22 -44 -2 -18 9 -49 14 -77 12 -39 -3 -48 -7 -50 -24 -3 -18 6 -25 45
-39 109 -40 132 -53 148 -86 49 -94 -30 -189 -157 -189 -45 0 -147 37 -154 55
-3 7 5 28 17 47 l22 34 45 -23 c51 -26 90 -29 116 -10 36 26 15 50 -68 78 -84
28 -111 52 -122 105 -7 40 17 97 50 120 58 38 132 38 219 2z m-1540 -10 c3
-18 2 -36 -2 -41 -4 -4 -412 -6 -907 -5 -836 3 -901 4 -931 21 -18 9 -37 26
-42 36 -10 18 14 19 933 20 l944 2 5 -33z m866 -15 c12 -27 30 -59 40 -72 l18
-23 30 49 c17 27 34 59 37 71 7 20 14 22 82 22 l75 0 -34 -42 c-42 -53 -132
-187 -140 -209 -3 -10 -2 -51 2 -93 l7 -76 -61 0 -60 0 3 87 c3 79 1 92 -20
123 -13 19 -49 74 -81 123 l-57 87 69 0 68 0 22 -47z m1251 -5 l0 -53 -61 3
-61 4 4 -161 3 -161 -63 0 c-35 0 -61 4 -58 8 3 5 6 78 6 163 l2 154 -34 0
c-18 0 -45 -4 -60 -8 l-28 -7 0 55 0 55 175 0 175 0 0 -52z m550 -3 c0 -53 -1
-54 -23 -46 -12 5 -60 9 -105 9 l-82 0 0 -40 0 -40 70 4 71 3 -3 -45 -3 -45
-67 4 -68 3 0 -41 0 -41 92 0 c71 0 95 4 110 17 17 15 18 14 18 -45 l0 -62
-167 0 -168 0 3 210 3 210 159 0 160 0 0 -55z m428 -52 c26 -56 49 -102 52
-102 3 0 26 46 52 102 l46 102 65 3 64 3 7 -143 c4 -79 11 -173 15 -210 l7
-68 -60 0 -61 0 3 67 c1 38 -1 87 -5 110 l-8 43 -35 -68 c-58 -113 -86 -154
-97 -140 -5 7 -33 55 -62 105 -29 51 -56 95 -61 98 -5 3 -8 -41 -7 -105 l2
-110 -58 0 -59 0 6 38 c3 20 8 115 12 210 l7 173 63 -3 64 -3 48 -102z m2321
99 l263 -4 -25 -26 c-16 -16 -43 -28 -74 -33 -26 -4 -454 -8 -950 -8 l-903 -1
0 41 0 40 713 -2 c391 -2 831 -5 976 -7z m-5433 -347 c25 -16 26 -20 22 -103
-4 -98 -23 -147 -90 -228 -21 -26 -36 -49 -34 -52 5 -4 124 14 160 25 17 5 18
1 12 -36 -34 -213 -186 -315 -351 -235 -57 28 -70 44 -34 44 32 0 78 31 101
68 48 78 -13 182 -108 182 -59 0 -106 -28 -138 -81 l-23 -40 -12 45 c-49 197
53 363 260 421 69 19 199 14 235 -10z m4130 -10 c131 -49 208 -140 221 -265 6
-61 -12 -180 -28 -180 -5 0 -9 6 -9 14 0 21 -47 74 -81 91 -61 32 -145 10
-174 -45 -19 -37 -19 -93 0 -129 13 -26 67 -61 93 -61 31 0 16 -21 -30 -44
-55 -28 -125 -34 -172 -16 -74 28 -156 146 -172 248 -8 49 -11 48 85 26 40 -9
75 -14 78 -11 3 4 -21 38 -54 77 -33 39 -72 93 -87 121 -29 52 -44 144 -28
168 33 47 238 51 358 6z m-2366 -287 c20 -47 70 -186 70 -195 0 -2 -17 12 -37
32 -21 20 -69 52 -108 70 -139 66 -279 81 -885 94 -368 7 -410 10 -465 29
l-60 20 731 1 732 1 22 -52z m1760 48 c0 -2 -21 -12 -47 -21 -40 -14 -123 -19
-503 -30 -295 -9 -490 -19 -555 -29 -165 -25 -281 -73 -364 -150 l-34 -31 7
30 c4 17 29 76 56 133 l49 102 695 0 c383 0 696 -2 696 -4z"/>
<path d="M5098 8713 c6 -2 18 -2 25 0 6 3 1 5 -13 5 -14 0 -19 -2 -12 -5z"/>
<path d="M5238 8713 c6 -2 18 -2 25 0 6 3 1 5 -13 5 -14 0 -19 -2 -12 -5z"/>
<path d="M5038 8703 c6 -2 18 -2 25 0 6 3 1 5 -13 5 -14 0 -19 -2 -12 -5z"/>
<path d="M5095 8673 c-38 -9 -37 -21 1 -13 76 16 80 18 49 18 -16 0 -39 -2
-50 -5z"/>
<path d="M4771 8564 c-40 -13 -83 -32 -95 -40 -19 -15 -19 -16 -1 -9 11 4 58
21 105 38 47 16 87 31 89 33 11 10 -30 1 -98 -22z"/>
<path d="M4630 8500 c-9 -6 -10 -10 -3 -10 6 0 15 5 18 10 8 12 4 12 -15 0z"/>
<path d="M4570 8470 c-19 -11 -31 -19 -27 -20 11 0 67 29 67 35 0 7 -1 7 -40
-15z"/>
<path d="M4289 8363 l-24 -28 28 24 c25 23 32 31 24 31 -2 0 -14 -12 -28 -27z"/>
<path d="M4317 8318 c-67 -67 -119 -137 -132 -178 -4 -14 14 7 40 45 26 39 75
98 108 133 34 34 58 62 54 62 -4 0 -35 -28 -70 -62z"/>
<path d="M5078 8343 c7 -3 16 -2 19 1 4 3 -2 6 -13 5 -11 0 -14 -3 -6 -6z"/>
<path d="M4567 8040 c-26 -16 -47 -32 -47 -36 0 -4 6 -2 13 4 6 6 32 22 57 36
25 14 40 26 34 26 -5 0 -31 -13 -57 -30z"/>
<path d="M5200 8050 c-21 -7 -21 -8 -5 -9 11 0 27 4 35 9 18 11 5 11 -30 0z"/>
<path d="M5448 7623 c6 -2 18 -2 25 0 6 3 1 5 -13 5 -14 0 -19 -2 -12 -5z"/>
<path d="M3596 7129 c-60 -52 -58 -141 5 -194 59 -49 159 -23 194 51 23 49 13
98 -30 141 -29 29 -40 33 -84 33 -42 0 -56 -5 -85 -31z"/>
<path d="M3202 6665 c-41 -37 -96 -143 -108 -209 l-7 -39 80 6 c138 11 199 50
210 136 10 71 -45 141 -111 141 -16 0 -41 -14 -64 -35z"/>
<path d="M4684 6578 l-19 -23 23 19 c21 18 27 26 19 26 -2 0 -12 -10 -23 -22z"/>
<path d="M4611 6505 c-22 -24 -41 -48 -41 -52 0 -4 4 -3 9 3 51 57 82 94 78
94 -2 0 -23 -20 -46 -45z"/>
<path d="M5918 6713 c7 -3 16 -2 19 1 4 3 -2 6 -13 5 -11 0 -14 -3 -6 -6z"/>
<path d="M5574 6660 c-94 -29 -267 -100 -260 -107 2 -2 43 13 92 32 49 20 121
45 159 55 39 11 88 26 110 34 74 27 -4 17 -101 -14z"/>
<path d="M5605 6110 c-13 -5 -14 -9 -5 -9 8 0 24 4 35 9 13 5 14 9 5 9 -8 0
-24 -4 -35 -9z"/>
<path d="M5550 6090 c-8 -5 -10 -10 -5 -10 6 0 17 5 25 10 8 5 11 10 5 10 -5
0 -17 -5 -25 -10z"/>
<path d="M5500 6070 c-8 -5 -10 -10 -5 -10 6 0 17 5 25 10 8 5 11 10 5 10 -5
0 -17 -5 -25 -10z"/>
<path d="M5450 6050 c-8 -5 -10 -10 -5 -10 6 0 17 5 25 10 8 5 11 10 5 10 -5
0 -17 -5 -25 -10z"/>
<path d="M5364 6004 c-18 -14 -18 -15 4 -4 12 6 22 13 22 15 0 8 -5 6 -26 -11z"/>
<path d="M5253 5939 c-35 -22 -46 -37 -15 -20 22 13 58 40 52 41 -3 0 -20 -10
-37 -21z"/>
<path d="M4188 5453 c12 -2 30 -2 40 0 9 3 -1 5 -23 4 -22 0 -30 -2 -17 -4z"/>
<path d="M4188 5013 c7 -3 16 -2 19 1 4 3 -2 6 -13 5 -11 0 -14 -3 -6 -6z"/>
<path d="M5058 4953 c12 -2 32 -2 45 0 12 2 2 4 -23 4 -25 0 -35 -2 -22 -4z"/>
<path d="M4658 4903 c12 -2 32 -2 45 0 12 2 2 4 -23 4 -25 0 -35 -2 -22 -4z"/>
<path d="M5073 4873 c48 -2 125 -2 170 0 45 1 6 3 -88 3 -93 0 -130 -2 -82 -3z"/>
<path d="M4752 4863 c37 -2 100 -2 140 0 40 1 10 3 -67 3 -77 0 -110 -1 -73
-3z"/>
<path d="M6138 4723 c39 -2 105 -2 145 0 39 1 7 3 -73 3 -80 0 -112 -2 -72 -3z"/>
<path d="M5940 4712 c0 -4 -37 -5 -81 -3 -51 2 -79 0 -76 -7 4 -6 -46 -9 -136
-10 -298 0 -412 -4 -387 -12 15 -5 -2 -6 -45 -3 -38 3 -66 2 -62 -3 8 -8 491
-8 667 1 108 6 183 22 174 36 -6 11 -54 12 -54 1z m-103 -28 c-3 -3 -12 -4
-19 -1 -8 3 -5 6 6 6 11 1 17 -2 13 -5z"/>
<path d="M5018 4673 c17 -2 47 -2 65 0 17 2 3 4 -33 4 -36 0 -50 -2 -32 -4z"/>
<path d="M4848 4663 c6 -2 18 -2 25 0 6 3 1 5 -13 5 -14 0 -19 -2 -12 -5z"/>
<path d="M6420 7768 c-1 -7 25 -93 57 -191 l58 -179 114 -101 c341 -303 593
-681 730 -1092 99 -297 135 -521 136 -832 l0 -221 35 -6 c19 -3 121 -6 226 -6
l192 0 26 54 c28 56 95 150 185 256 122 145 177 260 188 393 l6 69 -34 -7
c-169 -33 -300 -137 -393 -308 -44 -81 -122 -271 -147 -357 -13 -42 -14 -32
-20 160 -9 280 -45 497 -130 780 -138 461 -372 853 -717 1196 -165 165 -511
429 -512 392z"/>
<path d="M2794 7510 c-11 -4 -33 -22 -47 -40 -49 -57 -30 -160 35 -196 34 -19
98 -17 134 5 33 20 64 75 64 113 0 84 -105 151 -186 118z"/>
<path d="M7238 7505 c-78 -44 -77 -189 2 -230 68 -35 158 -5 186 62 21 49 11
96 -30 140 -27 30 -40 36 -82 39 -32 3 -58 -1 -76 -11z"/>
<path d="M2513 7145 c-95 -41 -94 -186 1 -231 67 -33 157 15 172 90 9 51 -24
118 -69 139 -42 20 -62 21 -104 2z"/>
<path d="M7533 7145 c-108 -47 -88 -221 28 -240 72 -12 149 50 149 121 0 43
-32 95 -71 116 -40 21 -63 22 -106 3z"/>
<path d="M6884 6684 c4 -10 12 -72 18 -136 10 -105 13 -117 32 -122 31 -8 126
-7 126 2 0 4 -15 37 -33 73 -47 92 -168 248 -143 183z"/>
<path d="M2255 6455 c-22 -8 -41 -15 -42 -15 -1 0 -11 -15 -22 -34 -29 -47
-28 -122 2 -167 44 -65 139 -73 203 -17 48 43 62 95 40 153 -30 76 -103 109
-181 80z"/>
<path d="M7785 6456 c-100 -46 -116 -185 -29 -250 93 -68 237 20 221 136 -9
71 -55 116 -124 124 -21 2 -51 -2 -68 -10z"/>
<path d="M1892 6254 c-29 -20 -52 -66 -52 -104 0 -38 23 -84 52 -104 12 -9 43
-16 68 -16 38 0 52 5 78 31 54 53 55 128 2 180 -23 24 -37 29 -77 29 -28 0
-58 -7 -71 -16z"/>
<path d="M8123 6260 c-34 -14 -63 -68 -63 -118 0 -34 6 -49 33 -79 30 -32 40
-36 81 -36 112 0 164 139 80 213 -36 31 -84 39 -131 20z"/>
<path d="M6988 6194 c-78 -42 -75 -177 4 -220 35 -20 99 -17 136 6 71 44 80
134 17 197 -28 28 -40 33 -81 33 -27 -1 -61 -7 -76 -16z"/>
<path d="M7161 5714 c-37 -47 -24 -104 29 -123 57 -19 109 16 110 77 0 45 -30
72 -79 72 -31 0 -44 -6 -60 -26z"/>
<path d="M3383 5420 c-27 -11 -43 -40 -43 -78 0 -52 59 -83 108 -58 87 45 25
173 -65 136z"/>
<path d="M2159 5153 c-18 -20 -28 -33 -20 -28 10 6 12 2 6 -14 -4 -13 -2 -21
5 -21 6 0 8 -6 5 -12 -4 -7 1 -4 9 6 11 14 13 23 5 32 -14 17 8 29 26 14 9 -8
15 -8 15 -2 0 6 -5 12 -11 14 -9 3 -9 10 0 26 18 33 -1 26 -40 -15z"/>
<path d="M2149 2109 c-50 -54 -39 -143 23 -175 70 -36 153 3 165 78 12 75 -37
128 -117 128 -34 0 -47 -6 -71 -31z"/>
<path d="M7860 2111 c-37 -36 -46 -72 -31 -122 14 -46 51 -69 111 -69 34 0 48
6 71 31 24 25 29 40 29 79 0 39 -5 54 -29 79 -24 26 -36 31 -76 31 -38 0 -52
-5 -75 -29z"/>
<path d="M10038 1043 c23 -2 61 -2 85 0 23 2 4 4 -43 4 -47 0 -66 -2 -42 -4z"/>
<path d="M10183 1043 c9 -2 25 -2 35 0 9 3 1 5 -18 5 -19 0 -27 -2 -17 -5z"/>
<path d="M10040 930 l-125 -6 115 -1 c63 -1 138 2 165 7 46 7 47 7 10 7 -22
-1 -96 -4 -165 -7z"/>
<path d="M9778 923 c12 -2 32 -2 45 0 12 2 2 4 -23 4 -25 0 -35 -2 -22 -4z"/>
<path d="M10130 901 c-32 -7 -29 -8 33 -15 37 -5 71 -6 74 -2 4 3 -14 7 -38 8
l-44 1 45 7 45 7 -40 0 c-22 0 -56 -3 -75 -6z"/>
<path d="M9938 893 c12 -2 32 -2 45 0 12 2 2 4 -23 4 -25 0 -35 -2 -22 -4z"/>
<path d="M9847 863 c18 -2 50 -2 70 0 21 2 7 4 -32 4 -38 0 -55 -2 -38 -4z"/>
<path d="M10018 863 c12 -2 32 -2 45 0 12 2 2 4 -23 4 -25 0 -35 -2 -22 -4z"/>
<path d="M10168 383 c7 -3 16 -2 19 1 4 3 -2 6 -13 5 -11 0 -14 -3 -6 -6z"/>
<path d="M10138 3 c7 -3 16 -2 19 1 4 3 -2 6 -13 5 -11 0 -14 -3 -6 -6z"/>
</g>
</svg>
